# xmcd
#
# Track frame offsets: 
#        150
#        16878
#        32916
#        59636
#        78299
#        95067
#        122230
#        142307
#        160902
#        182048
#        200148
#        214245
#
# Disc length: 3372 seconds
#
# Revision: 0
# Processed by: cddbd v1.5.2PL0 Copyright (c) Steve Scherf et al.
# Submitted via: ExactAudioCopy v0.95b4
#
DISCID=b80d2a0c
DTITLE=The Deep Dark Woods - Winter Hours
DYEAR=2009
DGENRE=Alt. Country
TTITLE0=Farewell
TTITLE1=Nancy
TTITLE2=How Can I Try
TTITLE3=All the Money I Had Is Gone
TTITLE4=Polly
TTITLE5=The Birds on the Bridge
TTITLE6=Two Time Loser
TTITLE7=As I Roved Out
TTITLE8=The Gallows
TTITLE9=When First into This Country
TTITLE10=The Winter Hours
TTITLE11=The Sun Never Shines
EXTD=
EXTT0=
EXTT1=
EXTT2=
EXTT3=
EXTT4=
EXTT5=
EXTT6=
EXTT7=
EXTT8=
EXTT9=
EXTT10=
EXTT11=
PLAYORDER=
